# xmcd
#
# Track frame offsets:
#	150
#	26975
#	63031
#	116243
#	138189
#	144755
#	188038
#
# Disc length: 2880 seconds
#
# Revision: 1
# Processed by: cddbd v1.5.1PL2 Copyright (c) Steve Scherf et al.
# Submitted via: CDmax 2.0
#
DISCID=5c0b3e07
DTITLE=Los Lonely Boys - Live in Austin, TX - 05.04.2005 - D2
DYEAR=2005
DGENRE=Blues
TTITLE0=My Loneliness
TTITLE1=Superstition
TTITLE2=Cottonfields and Crossroads
TTITLE3=Real Emotions
TTITLE4=Senorita Intro
TTITLE5=Senorita
TTITLE6=Heaven
EXTD=
EXTT0=
EXTT1=
EXTT2=
EXTT3=
EXTT4=
EXTT5=
EXTT6=
PLAYORDER=
